<svg xmlns="http://www.w3.org/2000/svg" stroke-width="1.33" viewBox="0 0 24 24"><path fill="none" stroke="currentColor" stroke-linecap="round" stroke-linejoin="round" d="M22.553 22.581a.569.569 0 0 1-.553.894H2a.569.569 0 0 1-.553-.894L11.553 2.37c.246-.492.648-.492.894 0ZM12 16.979v-7" vector-effect="non-scaling-stroke"/><path fill="none" stroke="currentColor" stroke-linecap="round" stroke-linejoin="round" d="M11.991 18.979a.246.246 0 0 0-.241.255.255.255 0 0 0 .254.245h.005a.246.246 0 0 0 .241-.255.255.255 0 0 0-.25-.245h-.005" vector-effect="non-scaling-stroke"/></svg>