<svg xmlns="http://www.w3.org/2000/svg" stroke-width="1.33" viewBox="0 0 24 24"><g fill="none" stroke="currentColor" stroke-linecap="round" stroke-linejoin="round"><path d="M21.75 23.25H2.25a14.15 14.15 0 0 0 1.5-6.35v-1.15h16.5v1.15a14.15 14.15 0 0 0 1.5 6.35Z" vector-effect="non-scaling-stroke"/><path d="M14.56 8.21h0A23 23 0 0 0 15 3.75h0a3 3 0 0 0-3-3h0a3 3 0 0 0-3 3h0a23 23 0 0 0 .44 4.46h0a1.29 1.29 0 0 1-1.26 1.54H5.25a3 3 0 0 0-3 3V15a.76.76 0 0 0 .75.75h18a.76.76 0 0 0 .75-.75v-2.25a3 3 0 0 0-3-3h-2.93a1.29 1.29 0 0 1-1.26-1.54Zm1.69 15.04v-4m-4 4V20.5" vector-effect="non-scaling-stroke"/></g></svg>