<svg xmlns="http://www.w3.org/2000/svg" fill="none" viewBox="0 0 207 107"><path fill="currentColor" fill-rule="evenodd" d="M68.204 77.286s1.619-1.234 3.54-2.69a8.052 8.052 0 0 1 5.947-1.578 8.027 8.027 0 0 1 5.32 3.115 2158.55 2158.55 0 0 1 5.38 7.06 8.052 8.052 0 0 1 1.577 5.946 8.027 8.027 0 0 1-3.115 5.32 907.334 907.334 0 0 1-3.519 2.69c-7.08 5.38-15.635 8.495-24.474 8.9a57.313 57.313 0 0 1-4.915.222C24.737 106.271.566 82.565 0 53.378v-.485C.566 23.706 24.737 0 53.945 0c1.557 0 3.135.06 4.672.202 13.046.243 25.445 7.95 35.215 18.022 12.621 13.026 20.813 29.289 20.813 29.289s6.472 12.864 16.444 23.139c5.138 5.3 11.064 10.457 17.921 10.457.405 0 .809.02 1.214.06.95.082 1.901.142 2.831.142 15.615 0 28.54-12.6 28.985-28.176-.445-15.574-13.37-28.175-28.985-28.175-.93 0-1.881.06-2.831.141l-.749.061a18.753 18.753 0 0 0-10.679 3.823s-1.619 1.234-3.54 2.69a8.053 8.053 0 0 1-5.947 1.578 8.025 8.025 0 0 1-5.319-3.115 2144.56 2144.56 0 0 1-5.381-7.06 8.05 8.05 0 0 1-1.577-5.946 8.027 8.027 0 0 1 3.115-5.32 907.334 907.334 0 0 1 3.519-2.69c7.079-5.38 15.635-8.495 24.474-8.9A57.092 57.092 0 0 1 153.055 0C182.263 0 206.434 23.706 207 52.893v.485c-.566 29.187-24.737 52.893-53.945 52.893-1.557 0-3.135-.061-4.672-.202-13.046-.243-25.445-7.95-35.215-18.022-12.621-13.026-20.813-29.288-20.813-29.288s-6.472-12.865-16.444-23.14c-5.138-5.3-11.064-10.457-17.921-10.457-.405 0-.81-.02-1.214-.06a33.121 33.121 0 0 0-2.831-.142c-15.615 0-28.54 12.601-28.985 28.175.445 15.575 13.37 28.176 28.985 28.176.93 0 1.88-.06 2.831-.141.243-.02.486-.04.749-.06a18.756 18.756 0 0 0 10.68-3.824Z" clip-rule="evenodd"/></svg>