<svg xmlns="http://www.w3.org/2000/svg" fill="none" viewBox="0 0 200 31"><path fill="currentColor" fill-rule="evenodd" d="m19.47 22.36 1.011-.769a2.299 2.299 0 0 1 1.698-.45c.606.08 1.149.404 1.518.89.49.64 1.045 1.368 1.536 2.014a2.291 2.291 0 0 1-.439 3.216c-.548.422-1.005.768-1.005.768a12.51 12.51 0 0 1-6.986 2.54 16.3 16.3 0 0 1-1.403.064C7.063 30.633.163 23.866.001 15.535v-.139C.163 7.064 7.063.297 15.4.297c.445 0 .895.018 1.334.058 3.724.07 7.263 2.27 10.052 5.145 3.603 3.718 5.941 8.36 5.941 8.36s1.848 3.672 4.695 6.605c1.466 1.513 3.158 2.986 5.115 2.986.116 0 .231.005.347.017.271.023.542.04.808.04 4.458 0 8.147-3.597 8.274-8.043-.127-4.446-3.816-8.043-8.274-8.043-.266 0-.537.018-.808.04a33.4 33.4 0 0 1-.214.018 5.354 5.354 0 0 0-3.049 1.091s-.461.352-1.01.768a2.299 2.299 0 0 1-1.697.45 2.292 2.292 0 0 1-1.519-.889 620.54 620.54 0 0 1-1.536-2.015 2.298 2.298 0 0 1-.45-1.697c.08-.607.404-1.15.889-1.519.548-.421 1.005-.768 1.005-.768a12.51 12.51 0 0 1 6.986-2.54c.468-.04.935-.064 1.403-.064 8.338 0 15.237 6.767 15.4 15.099v.139c-.163 8.331-7.062 15.098-15.4 15.098a14.6 14.6 0 0 1-1.334-.057c-3.724-.07-7.263-2.27-10.052-5.145-3.603-3.718-5.941-8.36-5.941-8.36s-1.848-3.673-4.694-6.606c-1.467-1.513-3.159-2.985-5.116-2.985a3.48 3.48 0 0 1-.347-.017 9.59 9.59 0 0 0-.808-.04c-4.457 0-8.147 3.596-8.274 8.042.127 4.446 3.817 8.043 8.274 8.043.266 0 .537-.017.808-.04l.214-.017a5.354 5.354 0 0 0 3.049-1.092Z" clip-rule="evenodd"/><path fill="currentColor" d="M72.32 25.522c-.536 0-1.03-.112-1.483-.334-.453-.218-.68-.552-.68-.997V6.549c0-.463.227-.797.68-.997a3.542 3.542 0 0 1 1.484-.306c.536 0 1.031.1 1.484.306.453.2.68.534.68.997v6.66l5.186-7.35c.278-.407.657-.613 1.138-.613.37 0 .753.11 1.15.334.398.222.731.495 1 .83.268.334.402.684.402 1.058 0 .105-.02.239-.056.384-.037.15-.11.295-.222.445l-4.549 5.714 5.742 8.793c.148.24.222.48.222.719 0 .356-.13.696-.388 1.03a3.024 3.024 0 0 1-.985.818c-.398.212-.81.318-1.234.318a2 2 0 0 1-.833-.178c-.258-.123-.48-.329-.665-.624l-4.744-7.217-1.165 1.498v5.023c0 .445-.226.78-.68.997a3.316 3.316 0 0 1-1.483.334Zm15.479 0a3.325 3.325 0 0 1-1.484-.334c-.453-.218-.68-.552-.68-.997V6.549c0-.463.227-.791.68-.997a3.542 3.542 0 0 1 1.484-.306c.536 0 1.031.1 1.484.306.453.206.68.534.68.997V24.19c0 .445-.227.78-.68.997a3.316 3.316 0 0 1-1.484.334Zm6.712 0c-.462 0-.892-.112-1.29-.334-.397-.218-.596-.552-.596-.997V6.549c0-.463.227-.797.68-.997a3.538 3.538 0 0 1 1.484-.306c.536 0 1.031.1 1.484.306.453.2.68.534.68.997v15.203h6.324c.425 0 .74.195.943.579.203.39.305.824.305 1.303 0 .468-.102.896-.305 1.292-.203.395-.518.596-.943.596h-8.766Zm18.006.167c-1.279 0-2.43-.212-3.456-.64a5.136 5.136 0 0 1-2.442-2.072c-.601-.958-.901-2.239-.901-3.832v-7.35c0-1.599.3-2.88.901-3.837a5.142 5.142 0 0 1 2.437-2.072c1.023-.429 2.174-.64 3.453-.64s2.437.211 3.472.64a5.12 5.12 0 0 1 2.455 2.072c.601.957.901 2.238.901 3.837v7.35c0 1.593-.3 2.874-.901 3.832a5.128 5.128 0 0 1-2.452 2.071c-1.034.43-2.19.64-3.467.64Zm-.003-3.77c.777 0 1.387-.223 1.831-.669.443-.445.665-1.147.665-2.105v-7.35c0-.964-.22-1.666-.662-2.111-.441-.446-1.052-.668-1.831-.668-.779 0-1.385.222-1.82.668-.435.445-.652 1.147-.652 2.11v7.351c0 .958.217 1.66.652 2.105.435.446 1.041.669 1.817.669Zm12.038 3.603a3.317 3.317 0 0 1-1.484-.334c-.453-.218-.68-.552-.68-.997V7.41c0-.795.227-1.358.68-1.68a2.503 2.503 0 0 1 1.484-.485c.518 0 .957.039 1.318.128.36.078.698.273 1.012.579.315.306.657.79 1.027 1.459l2.857 4.99 2.857-4.99c.388-.668.735-1.153 1.04-1.46.305-.305.638-.5.999-.578.36-.09.799-.128 1.317-.128.555 0 1.054.161 1.498.484.444.323.666.886.666 1.682V24.19c0 .445-.227.78-.68.997a3.314 3.314 0 0 1-1.484.334 3.317 3.317 0 0 1-1.484-.334c-.453-.218-.68-.552-.68-.997V13.788l-2.662 4.55c-.185.295-.407.507-.666.624a1.804 1.804 0 0 1-.777.183c-.24 0-.485-.055-.735-.167-.25-.111-.457-.328-.624-.64l-2.635-4.828v10.68c0 .446-.227.78-.68.998a3.314 3.314 0 0 1-1.484.334Zm19.223 0c-.462 0-.892-.112-1.29-.334-.397-.218-.596-.552-.596-.997V6.577c0-.446.199-.775.596-.997a2.598 2.598 0 0 1 1.29-.334h9.875c.463 0 .795.2.999.595.203.396.304.819.304 1.265 0 .517-.11.963-.332 1.342-.222.378-.546.568-.971.568h-7.434v4.689h4.161c.425 0 .749.172.971.512.222.345.333.735.333 1.18 0 .374-.102.736-.306 1.098-.203.362-.536.54-.998.54h-4.161v4.717h7.434c.425 0 .749.189.971.568.222.378.332.83.332 1.342 0 .445-.101.869-.304 1.264-.204.395-.536.596-.999.596h-9.875Zm19.334 0a3.317 3.317 0 0 1-1.484-.334c-.453-.218-.68-.552-.68-.997V9.127h-3.827c-.408 0-.727-.195-.958-.596-.231-.395-.346-.852-.346-1.37 0-.462.101-.896.305-1.303.203-.406.536-.612.999-.612h11.983c.462 0 .795.206.998.612.203.407.305.841.305 1.303 0 .518-.111.975-.333 1.37-.221.401-.546.596-.97.596h-3.828v15.064c0 .445-.227.78-.68.997a3.317 3.317 0 0 1-1.484.334Zm19.333.167c-.277 0-.54-.061-.79-.178-.25-.123-.449-.329-.596-.624l-3.8-7.379h-1.831v6.683c0 .445-.227.78-.68.997a3.317 3.317 0 0 1-1.484.334 3.317 3.317 0 0 1-1.484-.334c-.453-.218-.679-.552-.679-.997V6.549c0-.351.12-.657.36-.914.24-.261.564-.39.971-.39h5.742c1.276 0 2.427.179 3.453.54 1.027.363 1.845.975 2.455 1.833.61.858.916 2.05.916 3.564 0 1.036-.144 1.927-.43 2.679-.287.746-.685 1.364-1.193 1.843a5.438 5.438 0 0 1-1.734 1.108l3.384 6.131a.58.58 0 0 1 .111.251c.019.09.028.173.028.25 0 .352-.139.702-.416 1.053-.278.35-.624.635-1.04.858a2.653 2.653 0 0 1-1.263.334Zm-7.017-11.511h2.746c.776 0 1.387-.19 1.831-.568.443-.379.665-1.053.665-2.01 0-.98-.222-1.654-.665-2.027-.444-.368-1.055-.557-1.831-.557h-2.746v5.162Zm17.755 11.511c-1.278 0-2.43-.212-3.456-.64a5.13 5.13 0 0 1-2.441-2.072c-.601-.958-.902-2.239-.902-3.832v-7.35c0-1.599.301-2.88.902-3.837a5.135 5.135 0 0 1 2.436-2.072c1.024-.429 2.175-.64 3.454-.64 1.279 0 2.436.211 3.472.64a5.118 5.118 0 0 1 2.454 2.072c.601.957.902 2.238.902 3.837v7.35c0 1.593-.301 2.874-.902 3.832a5.118 5.118 0 0 1-2.452 2.071c-1.034.43-2.189.64-3.467.64Zm-.002-3.77c.776 0 1.386-.223 1.83-.669.444-.445.666-1.147.666-2.105v-7.35c0-.964-.221-1.666-.663-2.111-.441-.446-1.051-.668-1.83-.668-.779 0-1.386.222-1.821.668-.434.445-.651 1.147-.651 2.11v7.351c0 .958.217 1.66.652 2.105.435.446 1.04.669 1.817.669Z"/></svg>