<svg xmlns="http://www.w3.org/2000/svg" fill="none" stroke-width="1.33" viewBox="0 0 24 24"><path stroke="currentColor" stroke-linecap="round" stroke-linejoin="round" d="M15.75 3.75h-7.5a3 3 0 0 0-3 3v13.5a3 3 0 0 0 3 3h7.5a3 3 0 0 0 3-3V6.75a3 3 0 0 0-3-3Zm-7.5 0v-3" vector-effect="non-scaling-stroke"/><path stroke="currentColor" d="M10.125 16.125a.375.375 0 0 1 0-.75m0 .75a.375.375 0 0 0 0-.75m4.125.75a.375.375 0 0 1 0-.75m0 .75a.375.375 0 0 0 0-.75m-4.125 4.5a.375.375 0 0 1 0-.75m0 .75a.375.375 0 0 0 0-.75m4.125.75a.375.375 0 0 1 0-.75m0 .75a.375.375 0 0 0 0-.75" vector-effect="non-scaling-stroke"/><path stroke="currentColor" stroke-linecap="round" stroke-linejoin="round" d="M5.25 12.75h13.5" vector-effect="non-scaling-stroke"/></svg>