<svg xmlns="http://www.w3.org/2000/svg" fill="none" stroke-width="1.33" viewBox="0 0 24 24"><path stroke="currentColor" stroke-linecap="round" stroke-linejoin="round" d="M12 10.5a4.5 4.5 0 1 0 0-9 4.5 4.5 0 0 0 0 9Zm0 0v8.25m3-3.595c4.338.461 7.5 1.9 7.5 3.6 0 2.071-4.7 3.75-10.5 3.75S1.5 20.821 1.5 18.75c0-1.7 3.149-3.127 7.471-3.592" vector-effect="non-scaling-stroke"/><path stroke="currentColor" d="M11.625 5.25a.375.375 0 0 1 0-.75m0 .75a.375.375 0 0 0 0-.75" vector-effect="non-scaling-stroke"/></svg>