<svg xmlns="http://www.w3.org/2000/svg" fill="none" stroke-width="1.33" viewBox="0 0 24 24"><path stroke="currentColor" stroke-linecap="round" stroke-linejoin="round" stroke-miterlimit="10" d="M7.862 11.754a3.154 3.154 0 1 0 0-6.31 3.154 3.154 0 0 0 0 6.31Z" vector-effect="non-scaling-stroke"/><path stroke="currentColor" stroke-linecap="round" stroke-linejoin="round" stroke-miterlimit="10" d="M7.862 8.796a.197.197 0 0 1 0-.394m0 .394a.197.197 0 0 0 0-.394M2.636 23.09c0-3.458 1.281-8.595 4.337-11.46m8.972 6.432c0 1.676-1.774-.493-3.943-.493-2.168 0-3.943 2.169-3.943.493 0-1.675 1.775-3.943 3.943-3.943 2.169 0 3.943 2.268 3.943 3.943Zm-4.929-9.759h1.973M2.39 3.868a1.479 1.479 0 1 0 0-2.958 1.479 1.479 0 0 0 0 2.958Z" vector-effect="non-scaling-stroke"/><path stroke="currentColor" stroke-linecap="round" stroke-linejoin="round" stroke-miterlimit="10" d="M3.868 2.543s1.38.986 2.366 0c.492-.493.59-1.478 1.872-1.478 2.465 0 2.563 3.942 2.465 5.914m5.571 4.775a3.154 3.154 0 1 1 0-6.31 3.154 3.154 0 0 1 0 6.31Z" vector-effect="non-scaling-stroke"/><path stroke="currentColor" stroke-linecap="round" stroke-linejoin="round" stroke-miterlimit="10" d="M16.142 8.796a.197.197 0 0 0 0-.394m0 .394a.197.197 0 1 1 0-.394m5.227 14.688c0-3.458-1.282-8.595-4.337-11.46m4.583-7.762a1.479 1.479 0 1 1 0-2.958 1.479 1.479 0 0 1 0 2.958Z" vector-effect="non-scaling-stroke"/><path stroke="currentColor" stroke-linecap="round" stroke-linejoin="round" stroke-miterlimit="10" d="M20.137 2.543s-1.38.986-2.366 0c-.493-.493-.592-1.478-1.873-1.478-2.464 0-2.563 3.942-2.464 5.914M.91 23.09h22.18" vector-effect="non-scaling-stroke"/></svg>