<svg xmlns="http://www.w3.org/2000/svg" stroke-width="1.33" viewBox="0.25 0.25 23.5 23.5"><path fill="none" stroke="currentColor" stroke-linecap="round" stroke-linejoin="round" d="m23.353 8.146-3.9-3.75A5 5 0 0 0 15.986 3H8.013a5 5 0 0 0-3.465 1.4l-3.9 3.75a.5.5 0 0 0 0 .708l2.323 2.323a.5.5 0 0 0 .674.031L6.5 9v11.5a.5.5 0 0 0 .5.5h10a.5.5 0 0 0 .5-.5V9l2.856 2.208a.5.5 0 0 0 .674-.031l2.324-2.323a.5.5 0 0 0-.001-.708Z" vector-effect="non-scaling-stroke"/><path fill="none" stroke="currentColor" stroke-linecap="round" stroke-linejoin="round" d="M9 3a3 3 0 0 0 6 0" vector-effect="non-scaling-stroke"/></svg>