<svg xmlns="http://www.w3.org/2000/svg" stroke-width="1.33" viewBox="0 0 24 24"><path fill="none" stroke="currentColor" stroke-linecap="round" stroke-linejoin="round" d="M3.707 5.5h18.638a1 1 0 0 1 .965 1.263l-2.053 7.526a3 3 0 0 1-2.894 2.211H6.023" vector-effect="non-scaling-stroke"/><path fill="none" stroke="currentColor" stroke-linecap="round" stroke-linejoin="round" d="M.654.5h.378a2 2 0 0 1 1.957 1.588L6.32 17.912A2 2 0 0 0 8.277 19.5h11.377M6.154 22a1.5 1.5 0 1 0 3 0 1.5 1.5 0 1 0-3 0Zm10 0a1.5 1.5 0 1 0 3 0 1.5 1.5 0 1 0-3 0Z" vector-effect="non-scaling-stroke"/></svg>