<svg xmlns="http://www.w3.org/2000/svg" stroke-width="1.33" viewBox="0 0 24 24"><path fill="none" stroke="currentColor" stroke-linecap="round" stroke-linejoin="round" d="M12.15 23.25H1.75a1 1 0 0 1-1-1V1.75a1 1 0 0 1 1-1h20.5a1 1 0 0 1 1 1v20.5a1 1 0 0 1-1 1h-6.1v-8.5h2.56a.5.5 0 0 0 .5-.44l.38-3a.5.5 0 0 0-.5-.56h-2.94V9.69A1.69 1.69 0 0 1 17.84 8h1.81a.5.5 0 0 0 .5-.5v-3a.5.5 0 0 0-.5-.5h-1.81a5.69 5.69 0 0 0-5.69 5.69v1.06h-2.5a.5.5 0 0 0-.5.5v3a.5.5 0 0 0 .5.5h2.5v8.5Z" vector-effect="non-scaling-stroke"/></svg>